<svg width="169" height="21" viewBox="0 0 169 21" fill="none" xmlns="http://www.w3.org/2000/svg">
<path d="M13.3 18.3H10.26L3.04 7.08V18.3H0V2.3H3.48L10.26 12.74V2.3H13.3V18.3Z" fill="white"/>
<path d="M33.6886 10.3C33.6886 11.4467 33.4619 12.5267 33.0086 13.54C32.5686 14.5533 31.9619 15.4333 31.1886 16.18C30.4153 16.9267 29.5153 17.52 28.4886 17.96C27.4619 18.3867 26.3686 18.6 25.2086 18.6C24.0486 18.6 22.9486 18.3867 21.9086 17.96C20.8819 17.52 19.9819 16.9267 19.2086 16.18C18.4353 15.4333 17.8219 14.56 17.3686 13.56C16.9286 12.5467 16.7086 11.46 16.7086 10.3C16.7086 9.14 16.9286 8.05333 17.3686 7.04C17.8219 6.02667 18.4353 5.14667 19.2086 4.4C19.9819 3.65333 20.8819 3.06667 21.9086 2.64C22.9486 2.21333 24.0486 2 25.2086 2C26.3686 2 27.4619 2.21333 28.4886 2.64C29.5153 3.06667 30.4153 3.66 31.1886 4.42C31.9619 5.16667 32.5686 6.04667 33.0086 7.06C33.4619 8.06 33.6886 9.14 33.6886 10.3ZM30.5686 10.3C30.5686 9.56667 30.4286 8.88 30.1486 8.24C29.8686 7.58667 29.4819 7.02 28.9886 6.54C28.5086 6.04667 27.9419 5.66 27.2886 5.38C26.6353 5.08667 25.9419 4.94 25.2086 4.94C24.4619 4.94 23.7619 5.08667 23.1086 5.38C22.4553 5.66 21.8819 6.04667 21.3886 6.54C20.9086 7.02 20.5286 7.58667 20.2486 8.24C19.9686 8.88 19.8286 9.56667 19.8286 10.3C19.8286 11.02 19.9686 11.7067 20.2486 12.36C20.5286 13.0133 20.9086 13.5867 21.3886 14.08C21.8819 14.56 22.4553 14.9467 23.1086 15.24C23.7619 15.52 24.4619 15.66 25.2086 15.66C25.9419 15.66 26.6353 15.52 27.2886 15.24C27.9419 14.9467 28.5086 14.56 28.9886 14.08C29.4819 13.5867 29.8686 13.0133 30.1486 12.36C30.4286 11.7067 30.5686 11.02 30.5686 10.3Z" fill="white"/>
<path d="M53.0577 18.3H50.0177V7.62L44.9777 16.12L40.1377 7.54V18.3H37.0977V2.3H40.5977L45.0377 10.24L49.6777 2.3H53.0577V18.3Z" fill="white"/>
<path d="M73.4425 10.3C73.4425 11.4467 73.2158 12.5267 72.7625 13.54C72.3225 14.5533 71.7158 15.4333 70.9425 16.18C70.1692 16.9267 69.2692 17.52 68.2425 17.96C67.2158 18.3867 66.1225 18.6 64.9625 18.6C63.8025 18.6 62.7025 18.3867 61.6625 17.96C60.6358 17.52 59.7358 16.9267 58.9625 16.18C58.1892 15.4333 57.5758 14.56 57.1225 13.56C56.6825 12.5467 56.4625 11.46 56.4625 10.3C56.4625 9.14 56.6825 8.05333 57.1225 7.04C57.5758 6.02667 58.1892 5.14667 58.9625 4.4C59.7358 3.65333 60.6358 3.06667 61.6625 2.64C62.7025 2.21333 63.8025 2 64.9625 2C66.1225 2 67.2158 2.21333 68.2425 2.64C69.2692 3.06667 70.1692 3.66 70.9425 4.42C71.7158 5.16667 72.3225 6.04667 72.7625 7.06C73.2158 8.06 73.4425 9.14 73.4425 10.3ZM70.3225 10.3C70.3225 9.56667 70.1825 8.88 69.9025 8.24C69.6225 7.58667 69.2358 7.02 68.7425 6.54C68.2625 6.04667 67.6958 5.66 67.0425 5.38C66.3892 5.08667 65.6958 4.94 64.9625 4.94C64.2158 4.94 63.5158 5.08667 62.8625 5.38C62.2092 5.66 61.6358 6.04667 61.1425 6.54C60.6625 7.02 60.2825 7.58667 60.0025 8.24C59.7225 8.88 59.5825 9.56667 59.5825 10.3C59.5825 11.02 59.7225 11.7067 60.0025 12.36C60.2825 13.0133 60.6625 13.5867 61.1425 14.08C61.6358 14.56 62.2092 14.9467 62.8625 15.24C63.5158 15.52 64.2158 15.66 64.9625 15.66C65.6958 15.66 66.3892 15.52 67.0425 15.24C67.6958 14.9467 68.2625 14.56 68.7425 14.08C69.2358 13.5867 69.6225 13.0133 69.9025 12.36C70.1825 11.7067 70.3225 11.02 70.3225 10.3Z" fill="white"/>
<path d="M128.878 16.1066C128.834 16.1066 128.79 16.0841 128.768 16.0391L128.174 15.1843C128.152 15.1393 128.152 15.0943 128.152 15.0494C128.174 15.0044 128.218 14.9819 128.262 14.9594C132.466 14.5545 135.811 13.0474 139.134 10.0782C139.156 10.0557 139.2 10.0332 139.244 10.0332C139.288 10.0332 139.31 10.0557 139.332 10.0782L139.883 10.8205C139.927 10.888 139.927 10.9555 139.861 11.0229C136.449 14.0821 133.258 15.5442 128.878 16.1066C128.878 16.1066 128.9 16.1066 128.878 16.1066Z" fill="white"/>
<path d="M134.887 11.7896H133.919C133.853 11.7896 133.786 11.7222 133.786 11.6547V3.55684C133.786 3.48936 133.853 3.42188 133.919 3.42188H134.887C134.953 3.42188 135.019 3.48936 135.019 3.55684V11.6547C135.019 11.7222 134.953 11.7896 134.887 11.7896Z" fill="white"/>
<path d="M129.472 10.7521H128.394C128.35 10.7521 128.306 10.7296 128.284 10.6847C128.262 10.6397 128.262 10.5947 128.284 10.5497L130.573 5.39857C130.595 5.35358 130.661 5.33109 130.705 5.30859H131.783C131.827 5.30859 131.871 5.33109 131.893 5.37608C131.915 5.42106 131.915 5.46605 131.893 5.51104L129.604 10.6622C129.56 10.7296 129.516 10.7521 129.472 10.7521Z" fill="white"/>
<path d="M139.002 9.13352C138.958 9.13352 138.914 9.11102 138.892 9.06603L136.889 5.53448C136.867 5.48949 136.867 5.4445 136.889 5.39951C136.911 5.35453 136.955 5.33203 136.999 5.33203H138.121C138.187 5.35453 138.209 5.35453 138.231 5.39951L140.234 8.93107C140.256 8.97606 140.256 9.02105 140.234 9.06603C140.212 9.11102 140.168 9.13352 140.124 9.13352H139.002Z" fill="white"/>
<path d="M160.042 16.0847C160.02 16.0847 159.998 16.0847 159.998 16.0847L159.184 15.7697C159.14 15.7472 159.118 15.7248 159.118 15.7023C159.096 15.6573 159.096 15.6348 159.118 15.5898L159.602 14.2851C159.8 13.7453 159.954 13.2054 160.086 12.6656C160.262 11.8558 160.35 11.001 160.35 10.1687V4.54524C160.35 4.50026 160.372 4.45527 160.394 4.43277C160.416 4.41028 160.46 4.36529 160.505 4.38779C163.894 4.47776 165.324 4.07287 167.129 3.55551L167.569 3.42054C167.635 3.39805 167.679 3.42054 167.723 3.48803L168.252 4.29781C168.274 4.3428 168.274 4.38779 168.274 4.43277C168.252 4.47776 168.23 4.50026 168.186 4.52275L167.966 4.59023C166.117 5.15258 164.774 5.57997 161.671 5.60246C161.605 5.60246 161.539 5.66994 161.539 5.73742V10.2587C161.539 11.1585 161.429 12.0357 161.231 12.913L161.187 13.1154C161.055 13.6778 160.901 14.2177 160.703 14.735L160.218 16.0172C160.196 16.0622 160.174 16.0847 160.152 16.0847C160.086 16.0847 160.064 16.0847 160.042 16.0847Z" fill="white"/>
<path d="M158.193 9.78578C158.149 9.78578 158.105 9.76329 158.083 9.7183L156.521 7.17648C156.499 7.15399 156.499 7.109 156.499 7.06401C156.499 7.01902 156.521 6.99653 156.565 6.97404L157.687 6.25423C157.753 6.20924 157.775 6.11927 157.731 6.02929L156.543 4.1398C156.499 4.07231 156.521 3.98234 156.587 3.93735L157.401 3.39749C157.423 3.375 157.467 3.375 157.511 3.375C157.555 3.375 157.577 3.39749 157.599 3.44248L159.074 5.78186C159.074 5.80435 159.096 5.80435 159.096 5.82684L159.47 6.43418C159.492 6.45668 159.492 6.50166 159.492 6.54665C159.492 6.59164 159.47 6.61413 159.426 6.63663L158.303 7.35643C158.237 7.40142 158.215 7.4914 158.259 7.58137L159.14 9.02099C159.162 9.04348 159.162 9.08847 159.162 9.13346C159.162 9.17845 159.14 9.20094 159.096 9.22343L158.259 9.76329C158.237 9.78578 158.215 9.78578 158.193 9.78578Z" fill="white"/>
<path d="M157.446 16.173C157.424 16.173 157.402 16.173 157.402 16.173L156.5 15.8131C156.434 15.7906 156.39 15.7006 156.412 15.6331L158.503 10.1896C158.525 10.1221 158.613 10.0771 158.679 10.0996L159.581 10.4595C159.625 10.482 159.647 10.5045 159.647 10.527C159.647 10.5495 159.669 10.5945 159.647 10.6395L157.578 16.083C157.556 16.128 157.534 16.1505 157.512 16.1505C157.49 16.173 157.468 16.173 157.446 16.173Z" fill="white"/>
<path d="M167.944 16.1082C167.9 16.1082 167.855 16.0857 167.833 16.0407L166.777 14.5561C166.579 14.2862 166.425 13.9938 166.271 13.7013L165.743 12.6441C165.523 12.2167 165.368 11.7669 165.258 11.317L164.312 7.56048C164.29 7.5155 164.246 7.47051 164.202 7.47051C163.96 7.493 163.74 7.493 163.52 7.5155C163.476 7.5155 163.432 7.56048 163.432 7.62796V14.7586C163.432 14.826 163.498 14.8935 163.564 14.8935H165.214C165.28 14.8935 165.346 14.961 165.346 15.0285V15.9282C165.346 15.9957 165.28 16.0632 165.214 16.0632H162.441C162.353 16.0632 162.287 15.9957 162.287 15.9057V6.90816C162.287 6.88566 162.287 6.88566 162.287 6.88566V6.50327C162.287 6.45828 162.309 6.43578 162.331 6.41329C162.353 6.3908 162.397 6.3683 162.419 6.3683C164.334 6.3683 165.545 6.12087 166.909 5.82845L167.503 5.69348C167.569 5.67099 167.613 5.71598 167.657 5.76096L168.12 6.61574C168.142 6.66072 168.142 6.70571 168.12 6.7507C168.098 6.79569 168.076 6.81818 168.032 6.84068L167.459 6.97564C166.843 7.1106 166.249 7.24557 165.611 7.35804C165.545 7.35804 165.501 7.42552 165.523 7.493L166.095 9.76489C166.117 9.83237 166.183 9.87736 166.249 9.85487L168.076 9.06758C168.12 9.04509 168.142 9.04509 168.186 9.06758C168.23 9.09007 168.252 9.11257 168.252 9.13506L168.582 9.96734C168.604 10.0348 168.582 10.1248 168.516 10.1473L166.491 11.0021C166.425 11.0246 166.403 11.092 166.425 11.137C166.535 11.4969 166.667 11.8568 166.843 12.1942L167.283 13.0715C167.415 13.3414 167.569 13.6114 167.745 13.8588L168.978 15.6133C169 15.6583 169 15.7033 169 15.7483C168.978 15.7933 168.956 15.8158 168.912 15.8383L168.032 16.1532C167.966 16.1082 167.966 16.1082 167.944 16.1082Z" fill="white"/>
<path d="M146.177 9.99012H145.208C145.142 9.99012 145.076 9.92263 145.076 9.85515V7.26835C145.076 7.20086 145.032 7.15588 144.966 7.15588H142.391C142.325 7.15588 142.259 7.08839 142.259 7.02091V6.12115C142.259 6.05367 142.325 5.98619 142.391 5.98619H144.966C145.032 5.98619 145.076 5.9412 145.076 5.87372V3.55684C145.076 3.48936 145.142 3.42188 145.208 3.42188H146.177C146.243 3.42188 146.309 3.48936 146.309 3.55684V5.85122C146.309 5.91871 146.353 5.96369 146.419 5.96369H149.016C149.082 5.96369 149.148 6.03118 149.148 6.09866V6.99842C149.148 7.0659 149.082 7.13338 149.016 7.13338H146.419C146.353 7.13338 146.309 7.17837 146.309 7.24585V9.83266C146.331 9.94513 146.265 9.99012 146.177 9.99012Z" fill="white"/>
<path d="M143.69 5.98383C143.646 5.98383 143.602 5.96133 143.558 5.91634L142.633 4.04934C142.611 4.02685 142.611 3.98186 142.633 3.93687C142.655 3.89188 142.677 3.86939 142.699 3.8469L143.558 3.39702C143.624 3.35203 143.712 3.39702 143.734 3.4645L144.658 5.3315C144.68 5.35399 144.68 5.39898 144.658 5.44397C144.636 5.48896 144.614 5.51145 144.592 5.53395L143.734 5.98383C143.734 5.98383 143.712 5.98383 143.69 5.98383Z" fill="white"/>
<path d="M147.564 5.98334C147.542 5.98334 147.498 5.98334 147.476 5.96084L146.727 5.30852C146.705 5.28602 146.683 5.24103 146.683 5.21854C146.683 5.17355 146.683 5.15106 146.705 5.10607L148.07 3.464C148.114 3.39652 148.202 3.39652 148.268 3.44151L149.016 4.09384C149.038 4.11633 149.06 4.16132 149.06 4.18381C149.06 4.2288 149.06 4.2513 149.038 4.29628L147.674 5.93835C147.652 5.98334 147.608 5.98334 147.564 5.98334Z" fill="white"/>
<path d="M143.228 9.7636C143.206 9.7636 143.162 9.7636 143.14 9.7411L142.391 9.08878C142.369 9.06629 142.347 9.0213 142.347 8.9988C142.347 8.95382 142.347 8.93132 142.369 8.88633L143.778 7.19929C143.8 7.17679 143.844 7.1543 143.866 7.1543C143.91 7.1543 143.932 7.1543 143.976 7.17679L144.724 7.82912C144.79 7.8741 144.79 7.96408 144.746 8.03156L143.338 9.71861C143.316 9.7636 143.272 9.7636 143.228 9.7636Z" fill="white"/>
<path d="M148.047 9.6972C148.003 9.6972 147.959 9.67471 147.937 9.62972L146.727 7.94267C146.705 7.92018 146.705 7.87519 146.705 7.8302C146.705 7.78521 146.727 7.76272 146.749 7.74023L147.541 7.15538C147.607 7.11039 147.695 7.13289 147.739 7.17788L148.95 8.86492C148.972 8.88742 148.972 8.93241 148.972 8.97739C148.972 9.02238 148.95 9.04488 148.928 9.06737L148.135 9.65221C148.113 9.6972 148.069 9.6972 148.047 9.6972Z" fill="white"/>
<path d="M149.236 15.1411C149.28 15.1636 149.302 15.2086 149.324 15.2536C149.324 15.2985 149.302 15.3435 149.28 15.3885L148.531 16.0184C148.443 16.0858 148.333 16.1083 148.223 16.0633L145.934 14.9611C145.89 14.9386 145.846 14.9386 145.802 14.9611L144.922 15.3435C144.526 15.5235 144.108 15.6809 143.711 15.8159L142.633 16.1533C142.611 16.1533 142.611 16.1533 142.589 16.1533C142.523 16.1533 142.479 16.1083 142.457 16.0633L142.237 15.3435C142.193 15.1861 142.281 15.0286 142.435 14.9611L143.601 14.5787C143.821 14.5113 144.042 14.4213 144.24 14.3313L144.482 14.2188L143.954 13.9714L142.787 13.4091C142.743 13.3866 142.721 13.3641 142.721 13.3191C142.699 13.2741 142.721 13.2516 142.721 13.2066L143.359 12.0144C143.425 11.902 143.337 11.7895 143.227 11.7895H142.501C142.347 11.7895 142.215 11.6545 142.215 11.4971V10.8897C142.215 10.7323 142.347 10.5973 142.501 10.5973H144.13L144.328 10.2374C144.35 10.1924 144.394 10.1699 144.438 10.1699H145.67C145.714 10.1699 145.758 10.1924 145.78 10.2374C145.802 10.2824 145.802 10.3274 145.78 10.3724L145.648 10.5748H148.994C149.148 10.5748 149.28 10.7098 149.28 10.8672V11.902C149.28 12.0144 149.236 12.1269 149.17 12.1944L148.531 12.8692C148.113 13.3191 147.651 13.724 147.145 14.0614L149.236 15.1411ZM144.614 13.0267L145.78 13.5665C145.824 13.589 145.89 13.589 145.934 13.544L146.529 13.1391C146.903 12.8692 147.277 12.5768 147.585 12.2394L147.959 11.8345H145.164C145.054 11.8345 144.944 11.902 144.9 11.9919L144.504 12.6668C144.438 12.8017 144.482 12.9592 144.614 13.0267Z" fill="white"/>
<path d="M153.331 13.7466L154.651 15.2312C154.695 15.2987 154.695 15.3887 154.651 15.4337L153.925 16.1085C153.903 16.131 153.859 16.1535 153.837 16.1535C153.793 16.1535 153.771 16.131 153.749 16.1085L152.186 14.3539C152.12 14.2865 152.01 14.2865 151.944 14.3539L150.359 16.086C150.337 16.1085 150.293 16.131 150.271 16.131C150.227 16.131 150.205 16.1085 150.161 16.086L149.457 15.4112C149.435 15.3887 149.413 15.3437 149.413 15.3212C149.413 15.2762 149.435 15.2537 149.457 15.2087L150.712 13.8141L151.218 13.2292C151.262 13.1843 151.262 13.0943 151.218 13.0493L151.064 12.8244C150.58 12.1495 150.227 11.3622 150.051 10.53L149.941 10.0576C149.853 9.63021 149.809 9.18033 149.809 8.75295V6.12115C149.809 6.07616 149.831 6.05367 149.853 6.03118C149.875 6.00868 149.919 5.98619 149.941 5.98619H150.91C150.976 5.98619 151.042 6.05367 151.042 6.12115V8.59549C151.042 9.02288 151.086 9.42777 151.174 9.85515L151.218 10.0351C151.372 10.7324 151.636 11.3622 152.01 11.9471C152.054 12.0146 152.142 12.0146 152.164 11.9471C152.56 11.3622 152.824 10.6874 153.001 9.99012L153.023 9.90014C153.133 9.47276 153.177 9.02288 153.177 8.573V5.69377C153.177 5.64878 153.133 5.60379 153.089 5.60379H149.963C149.897 5.60379 149.831 5.53631 149.831 5.46883V3.55684C149.831 3.48936 149.897 3.42188 149.963 3.42188H150.932C150.998 3.42188 151.064 3.48936 151.064 3.55684V4.41161H154.299C154.365 4.41161 154.431 4.47909 154.431 4.54657V5.44633V8.68547C154.431 9.15784 154.387 9.63021 154.277 10.1026L154.167 10.575C153.991 11.3847 153.639 12.127 153.155 12.7794L152.957 13.0493C152.913 13.1168 152.913 13.1843 152.957 13.2517L153.331 13.7466Z" fill="white"/>
<path d="M113.409 0.00044903C107.947 -0.0515634 103.452 4.4215 103.401 10.0215C103.35 15.6215 107.727 20.1986 113.206 20.2506C118.685 20.3026 123.164 15.8296 123.214 10.2296C123.265 4.62955 118.889 0.0524614 113.409 0.00044903ZM118.312 5.68714L118.21 6.502C118.193 6.71005 118.041 6.86608 117.837 6.90076L116.022 7.21283V11.8593C116.022 12.1367 116.09 12.4141 116.208 12.6741L117.345 14.9107C117.481 15.1707 117.294 15.4655 117.006 15.4655H116.039C115.903 15.4655 115.767 15.3788 115.7 15.2574L114.563 13.0729C114.427 12.8128 114.359 12.5354 114.359 12.2407V7.49023L111.798 7.92367V14.3559C111.798 14.5639 111.696 14.772 111.527 14.876L110.831 15.3441C110.543 15.5522 110.136 15.3268 110.136 14.9627V8.20107L108.27 8.51314C107.981 8.56516 107.71 8.30509 107.761 8.01036L107.862 7.1955C107.879 6.98745 108.032 6.83141 108.236 6.79673L117.803 5.14968C118.091 5.13234 118.346 5.3924 118.312 5.68714Z" fill="white"/>
<path d="M84 7L92 15" stroke="white" stroke-width="0.5"/>
<path d="M92 7L84 15" stroke="white" stroke-width="0.5"/>
</svg>
