<svg width="120" height="55" viewBox="0 0 120 55" fill="none" xmlns="http://www.w3.org/2000/svg">
<path d="M23.4675 28H18.6795L7.308 10.3285V28H2.52V2.8H8.001L18.6795 19.243V2.8H23.4675V28ZM55.5795 15.4C55.5795 17.206 55.2225 18.907 54.5085 20.503C53.8155 22.099 52.86 23.485 51.642 24.661C50.424 25.837 49.0065 26.7715 47.3895 27.4645C45.7725 28.1365 44.0505 28.4725 42.2235 28.4725C40.3965 28.4725 38.664 28.1365 37.026 27.4645C35.409 26.7715 33.9915 25.837 32.7735 24.661C31.5555 23.485 30.5895 22.1095 29.8755 20.5345C29.1825 18.9385 28.836 17.227 28.836 15.4C28.836 13.573 29.1825 11.8615 29.8755 10.2655C30.5895 8.6695 31.5555 7.2835 32.7735 6.1075C33.9915 4.9315 35.409 4.0075 37.026 3.3355C38.664 2.6635 40.3965 2.3275 42.2235 2.3275C44.0505 2.3275 45.7725 2.6635 47.3895 3.3355C49.0065 4.0075 50.424 4.942 51.642 6.139C52.86 7.315 53.8155 8.701 54.5085 10.297C55.2225 11.872 55.5795 13.573 55.5795 15.4ZM50.6655 15.4C50.6655 14.245 50.445 13.1635 50.004 12.1555C49.563 11.1265 48.954 10.234 48.177 9.478C47.421 8.701 46.5285 8.092 45.4995 7.651C44.4705 7.189 43.3785 6.958 42.2235 6.958C41.0475 6.958 39.945 7.189 38.916 7.651C37.887 8.092 36.984 8.701 36.207 9.478C35.451 10.234 34.8525 11.1265 34.4115 12.1555C33.9705 13.1635 33.75 14.245 33.75 15.4C33.75 16.534 33.9705 17.6155 34.4115 18.6445C34.8525 19.6735 35.451 20.5765 36.207 21.3535C36.984 22.1095 37.887 22.7185 38.916 23.1805C39.945 23.6215 41.0475 23.842 42.2235 23.842C43.3785 23.842 44.4705 23.6215 45.4995 23.1805C46.5285 22.7185 47.421 22.1095 48.177 21.3535C48.954 20.5765 49.563 19.6735 50.004 18.6445C50.445 17.6155 50.6655 16.534 50.6655 15.4ZM86.0858 28H81.2978V11.179L73.3598 24.5665L65.7368 11.053V28H60.9488V2.8H66.4613L73.4543 15.3055L80.7623 2.8H86.0858V28ZM118.192 15.4C118.192 17.206 117.835 18.907 117.121 20.503C116.428 22.099 115.472 23.485 114.254 24.661C113.036 25.837 111.619 26.7715 110.002 27.4645C108.385 28.1365 106.663 28.4725 104.836 28.4725C103.009 28.4725 101.276 28.1365 99.6384 27.4645C98.0214 26.7715 96.6039 25.837 95.3859 24.661C94.1679 23.485 93.2019 22.1095 92.4879 20.5345C91.7949 18.9385 91.4484 17.227 91.4484 15.4C91.4484 13.573 91.7949 11.8615 92.4879 10.2655C93.2019 8.6695 94.1679 7.2835 95.3859 6.1075C96.6039 4.9315 98.0214 4.0075 99.6384 3.3355C101.276 2.6635 103.009 2.3275 104.836 2.3275C106.663 2.3275 108.385 2.6635 110.002 3.3355C111.619 4.0075 113.036 4.942 114.254 6.139C115.472 7.315 116.428 8.701 117.121 10.297C117.835 11.872 118.192 13.573 118.192 15.4ZM113.278 15.4C113.278 14.245 113.057 13.1635 112.616 12.1555C112.175 11.1265 111.566 10.234 110.789 9.478C110.033 8.701 109.141 8.092 108.112 7.651C107.083 7.189 105.991 6.958 104.836 6.958C103.66 6.958 102.557 7.189 101.528 7.651C100.499 8.092 99.5964 8.701 98.8194 9.478C98.0634 10.234 97.4649 11.1265 97.0239 12.1555C96.5829 13.1635 96.3624 14.245 96.3624 15.4C96.3624 16.534 96.5829 17.6155 97.0239 18.6445C97.4649 19.6735 98.0634 20.5765 98.8194 21.3535C99.5964 22.1095 100.499 22.7185 101.528 23.1805C102.557 23.6215 103.66 23.842 104.836 23.842C105.991 23.842 107.083 23.6215 108.112 23.1805C109.141 22.7185 110.033 22.1095 110.789 21.3535C111.566 20.5765 112.175 19.6735 112.616 18.6445C113.057 17.6155 113.278 16.534 113.278 15.4Z" fill="white"/>
<path d="M5.672 44.844H6.176L6.668 44.16C6.724 44.072 6.788 44.028 6.86 44.028C6.94 44.028 7.132 44.18 7.436 44.484C7.748 44.78 7.904 44.976 7.904 45.072C7.904 45.168 7.844 45.216 7.724 45.216H5.672V46.704C6.24 46.864 6.684 47.036 7.004 47.22C7.324 47.404 7.484 47.636 7.484 47.916C7.484 48.196 7.416 48.432 7.28 48.624C7.152 48.808 7.028 48.9 6.908 48.9C6.796 48.9 6.716 48.876 6.668 48.828C6.628 48.78 6.584 48.68 6.536 48.528C6.312 47.808 6.024 47.272 5.672 46.92V52.392C5.672 52.464 5.636 52.524 5.564 52.572C5.5 52.62 5.356 52.688 5.132 52.776C4.908 52.872 4.768 52.92 4.712 52.92C4.664 52.92 4.64 52.876 4.64 52.788L4.652 52.224C4.668 51.84 4.676 51.492 4.676 51.18V47.712C4.148 48.992 3.396 50.1 2.42 51.036L2.252 50.904C3.34 49.112 4.088 47.216 4.496 45.216H3.452C3.244 45.216 3.072 45.236 2.936 45.276L2.732 44.784C2.9 44.824 3.1 44.844 3.332 44.844H4.676V43.188C4.676 42.66 4.664 42.204 4.64 41.82C5.216 41.988 5.62 42.116 5.852 42.204C6.084 42.292 6.2 42.364 6.2 42.42C6.2 42.492 6.024 42.616 5.672 42.792V44.844ZM9.236 43.188H11.684L12.032 42.672C12.088 42.592 12.14 42.552 12.188 42.552C12.236 42.552 12.344 42.612 12.512 42.732C12.68 42.852 12.856 42.988 13.04 43.14C13.232 43.284 13.328 43.376 13.328 43.416C13.328 43.488 13.176 43.616 12.872 43.8V51.204C12.872 51.62 12.876 51.892 12.884 52.02L12.896 52.356C12.896 52.388 12.892 52.412 12.884 52.428C12.876 52.452 12.796 52.512 12.644 52.608C12.5 52.704 12.336 52.784 12.152 52.848C11.968 52.92 11.856 52.956 11.816 52.956C11.784 52.956 11.768 52.908 11.768 52.812V51.648H9.104V52.368C9.104 52.44 9.096 52.488 9.08 52.512C9.064 52.536 8.996 52.58 8.876 52.644C8.764 52.716 8.6 52.788 8.384 52.86C8.176 52.932 8.056 52.968 8.024 52.968C8 52.968 7.992 52.928 8 52.848C8.04 52.456 8.06 52.056 8.06 51.648V43.62C8.06 43.284 8.048 42.944 8.024 42.6C8.52 42.792 8.924 42.988 9.236 43.188ZM11.768 45.888V43.584H9.104V45.888H11.768ZM11.768 48.564V46.272H9.104V48.564H11.768ZM11.768 51.264V48.948H9.104V51.264H11.768ZM30.836 44.772H31.34L31.748 44.088C31.82 43.976 31.888 43.92 31.952 43.92C32.024 43.92 32.212 44.084 32.516 44.412C32.82 44.732 32.972 44.94 32.972 45.036C32.972 45.124 32.884 45.168 32.708 45.168H30.836V46.416C31.452 46.568 31.912 46.736 32.216 46.92C32.52 47.096 32.672 47.3 32.672 47.532C32.672 47.756 32.612 47.96 32.492 48.144C32.38 48.32 32.244 48.408 32.084 48.408C32.02 48.408 31.968 48.384 31.928 48.336C31.896 48.288 31.852 48.204 31.796 48.084C31.516 47.476 31.196 47.008 30.836 46.68V52.26C30.836 52.388 30.804 52.476 30.74 52.524C30.676 52.58 30.532 52.652 30.308 52.74C30.092 52.828 29.948 52.872 29.876 52.872C29.812 52.872 29.78 52.824 29.78 52.728L29.804 52.068C29.812 51.796 29.816 51.492 29.816 51.156V47.592C29.28 48.512 28.528 49.452 27.56 50.412L27.368 50.22C27.984 49.388 28.452 48.592 28.772 47.832C29.1 47.072 29.384 46.184 29.624 45.168H28.448C28.24 45.168 28.068 45.188 27.932 45.228L27.728 44.712C27.896 44.752 28.096 44.772 28.328 44.772H29.816V43.32C29.816 42.792 29.804 42.336 29.78 41.952C30.764 42.176 31.256 42.352 31.256 42.48C31.256 42.552 31.116 42.664 30.836 42.816V44.772ZM34.304 43.368C34.312 44.232 34.296 45.224 34.256 46.344C34.216 47.464 34.168 48.224 34.112 48.624C34.056 49.024 33.96 49.404 33.824 49.764C33.688 50.116 33.504 50.452 33.272 50.772C33.048 51.084 32.764 51.396 32.42 51.708C32.084 52.028 31.668 52.376 31.172 52.752L31.004 52.524C31.684 51.86 32.184 51.24 32.504 50.664C32.824 50.088 33.032 49.44 33.128 48.72C33.232 48 33.284 46.952 33.284 45.576C33.284 44.192 33.252 43.136 33.188 42.408C33.628 42.528 34.076 42.712 34.532 42.96H35.396L35.744 42.432C35.8 42.344 35.86 42.3 35.924 42.3C35.98 42.3 36.12 42.376 36.344 42.528C36.568 42.68 36.748 42.812 36.884 42.924C37.02 43.036 37.088 43.132 37.088 43.212C37.088 43.292 36.904 43.444 36.536 43.668V50.976C36.536 51.096 36.576 51.168 36.656 51.192C36.736 51.216 36.964 51.228 37.34 51.228C37.524 51.228 37.652 51.184 37.724 51.096C37.804 51.016 37.872 50.812 37.928 50.484C37.992 50.148 38.08 49.512 38.192 48.576H38.516C38.476 49.128 38.456 49.572 38.456 49.908C38.456 50.236 38.48 50.5 38.528 50.7C38.584 50.892 38.716 51.048 38.924 51.168C39.004 51.224 39.044 51.28 39.044 51.336C39.044 51.4 38.972 51.544 38.828 51.768C38.684 52 38.512 52.144 38.312 52.2C38.12 52.264 37.724 52.296 37.124 52.296C36.524 52.296 36.096 52.248 35.84 52.152C35.592 52.064 35.468 51.832 35.468 51.456V43.368H34.304ZM60.128 47.16V45.888C60.128 45.536 60.116 45.204 60.092 44.892C60.396 44.956 60.668 45.02 60.908 45.084C61.156 45.148 61.304 45.192 61.352 45.216C61.4 45.24 61.424 45.28 61.424 45.336C61.424 45.384 61.324 45.46 61.124 45.564V47.16H61.892L62.372 46.536C62.428 46.456 62.488 46.416 62.552 46.416C62.616 46.416 62.76 46.504 62.984 46.68L63.536 47.124C63.688 47.244 63.764 47.348 63.764 47.436C63.764 47.516 63.68 47.556 63.512 47.556H61.124V51.816C61.124 52.088 61.064 52.276 60.944 52.38C60.832 52.492 60.656 52.588 60.416 52.668C60.176 52.756 60.012 52.8 59.924 52.8C59.836 52.8 59.784 52.744 59.768 52.632C59.72 52.384 59.616 52.196 59.456 52.068C59.296 51.948 58.956 51.816 58.436 51.672L58.46 51.444C59.068 51.516 59.472 51.552 59.672 51.552C59.88 51.552 60.008 51.532 60.056 51.492C60.104 51.452 60.128 51.384 60.128 51.288V47.556H58.544C58.416 47.748 58.316 47.844 58.244 47.844C58.18 47.844 58.012 47.752 57.74 47.568C57.468 47.384 57.304 47.26 57.248 47.196C57.408 47.116 57.532 47.04 57.62 46.968C57.708 46.888 57.784 46.788 57.848 46.668C57.912 46.548 58.048 46.232 58.256 45.72C58.472 45.208 58.664 44.704 58.832 44.208H57.872C57.656 44.208 57.488 44.236 57.368 44.292L57.152 43.8C57.32 43.84 57.52 43.86 57.752 43.86H58.952C59.184 43.132 59.368 42.456 59.504 41.832C59.744 41.904 60.02 42 60.332 42.12C60.644 42.24 60.824 42.316 60.872 42.348C60.92 42.372 60.944 42.412 60.944 42.468C60.944 42.516 60.868 42.56 60.716 42.6C60.564 42.64 60.452 42.748 60.38 42.924L59.984 43.86H61.988L62.492 43.092C62.548 43.012 62.596 42.972 62.636 42.972C62.7 42.972 62.92 43.14 63.296 43.476C63.68 43.804 63.872 44.008 63.872 44.088C63.872 44.168 63.796 44.208 63.644 44.208H59.84L58.616 47.16H60.128ZM54.8 42.732H56.048L56.324 42.276C56.372 42.212 56.42 42.18 56.468 42.18C56.524 42.18 56.728 42.304 57.08 42.552C57.44 42.792 57.62 42.936 57.62 42.984C57.62 43.032 57.56 43.076 57.44 43.116C57.328 43.156 57.232 43.216 57.152 43.296C57.08 43.376 56.896 43.656 56.6 44.136C56.304 44.608 55.96 45.188 55.568 45.876C56.112 46.196 56.516 46.524 56.78 46.86C57.044 47.196 57.176 47.628 57.176 48.156C57.176 48.812 56.992 49.268 56.624 49.524C56.264 49.78 56.028 49.908 55.916 49.908C55.812 49.908 55.756 49.844 55.748 49.716C55.74 49.492 55.656 49.312 55.496 49.176C55.344 49.04 55.104 48.928 54.776 48.84V48.636C55.056 48.676 55.304 48.696 55.52 48.696C55.744 48.696 55.912 48.648 56.024 48.552C56.136 48.456 56.192 48.26 56.192 47.964C56.192 47.668 56.104 47.324 55.928 46.932C55.752 46.532 55.512 46.204 55.208 45.948C55.68 44.604 55.98 43.64 56.108 43.056H54.632V52.32C54.632 52.416 54.604 52.48 54.548 52.512C54.492 52.552 54.352 52.612 54.128 52.692C53.904 52.772 53.764 52.812 53.708 52.812C53.66 52.812 53.636 52.788 53.636 52.74L53.66 52.176C53.676 51.936 53.684 51.568 53.684 51.072V43.428C53.684 42.852 53.668 42.432 53.636 42.168C54.132 42.376 54.52 42.564 54.8 42.732ZM58.508 48.156C58.812 48.324 59.068 48.476 59.276 48.612C59.492 48.748 59.612 48.832 59.636 48.864C59.66 48.896 59.672 48.932 59.672 48.972C59.672 49.06 59.604 49.104 59.468 49.104C59.42 49.104 59.36 49.124 59.288 49.164C59.216 49.196 59.168 49.232 59.144 49.272C58.4 50.216 57.84 50.848 57.464 51.168C57.096 51.488 56.628 51.828 56.06 52.188L55.904 52.02C56.472 51.46 56.948 50.896 57.332 50.328C57.724 49.752 58.116 49.028 58.508 48.156ZM61.556 48.168C63.02 49.192 63.752 50.004 63.752 50.604C63.752 50.9 63.684 51.132 63.548 51.3C63.42 51.476 63.264 51.564 63.08 51.564C62.992 51.564 62.928 51.532 62.888 51.468C62.848 51.412 62.812 51.324 62.78 51.204C62.548 50.356 62.324 49.736 62.108 49.344C61.9 48.952 61.672 48.612 61.424 48.324L61.556 48.168ZM87.356 42.012C87.652 42.068 87.94 42.136 88.22 42.216C88.508 42.296 88.688 42.352 88.76 42.384C88.832 42.416 88.868 42.46 88.868 42.516C88.868 42.572 88.724 42.676 88.436 42.828V51.3C88.436 51.74 88.36 52.048 88.208 52.224C88.064 52.4 87.836 52.552 87.524 52.68C87.22 52.808 87.024 52.872 86.936 52.872C86.856 52.872 86.808 52.808 86.792 52.68C86.76 52.456 86.696 52.28 86.6 52.152C86.512 52.024 86.352 51.904 86.12 51.792C85.888 51.688 85.536 51.568 85.064 51.432L85.124 51.204C86.02 51.38 86.576 51.468 86.792 51.468C87.016 51.468 87.168 51.436 87.248 51.372C87.336 51.316 87.38 51.164 87.38 50.916V43.08C87.38 42.68 87.372 42.324 87.356 42.012ZM81.08 45.792C80.944 46.064 80.804 46.32 80.66 46.56C81.012 46.864 81.28 47.172 81.464 47.484C81.656 47.788 81.752 48.052 81.752 48.276C81.752 48.492 81.68 48.68 81.536 48.84C81.392 49 81.22 49.08 81.02 49.08C80.82 49.08 80.72 48.968 80.72 48.744C80.72 48.672 80.732 48.564 80.756 48.42C80.78 48.276 80.792 48.132 80.792 47.988C80.792 47.604 80.7 47.2 80.516 46.776C80.012 47.592 79.268 48.476 78.284 49.428L78.104 49.26C78.84 48.3 79.424 47.368 79.856 46.464C80.288 45.56 80.648 44.5 80.936 43.284H79.028C78.82 43.284 78.648 43.304 78.512 43.344L78.308 42.852C78.476 42.892 78.676 42.912 78.908 42.912H83.108L83.648 42.288C83.728 42.2 83.796 42.156 83.852 42.156C83.908 42.156 84.016 42.224 84.176 42.36L84.716 42.828C84.916 42.996 85.016 43.116 85.016 43.188C85.016 43.252 84.928 43.284 84.752 43.284H82.112C81.848 44.076 81.568 44.784 81.272 45.408H82.64L82.94 45C82.996 44.928 83.052 44.892 83.108 44.892C83.172 44.892 83.328 44.96 83.576 45.096C83.832 45.224 84.02 45.324 84.14 45.396C84.268 45.468 84.332 45.536 84.332 45.6C84.332 45.656 84.268 45.716 84.14 45.78C84.02 45.836 83.936 45.9 83.888 45.972C83.84 46.044 83.792 46.184 83.744 46.392C83.472 47.544 83.14 48.48 82.748 49.2C82.356 49.92 81.804 50.544 81.092 51.072C80.388 51.6 79.42 52.092 78.188 52.548L78.128 52.368C79.56 51.568 80.652 50.636 81.404 49.572C82.156 48.5 82.612 47.24 82.772 45.792H81.08ZM85.064 43.692C85.92 43.892 86.348 44.06 86.348 44.196C86.348 44.268 86.252 44.34 86.06 44.412V48.324L86.084 49.38C86.084 49.468 86.06 49.532 86.012 49.572C85.972 49.604 85.844 49.652 85.628 49.716C85.42 49.78 85.26 49.812 85.148 49.812C85.092 49.812 85.064 49.752 85.064 49.632L85.088 48.252V44.652C85.088 44.292 85.08 43.972 85.064 43.692ZM104.984 44.484C104.544 45.404 104 46.236 103.352 46.98L103.148 46.812C103.964 45.412 104.54 43.744 104.876 41.808C105.492 42.032 105.864 42.18 105.992 42.252C106.128 42.324 106.196 42.388 106.196 42.444C106.196 42.5 106.124 42.552 105.98 42.6C105.844 42.648 105.728 42.784 105.632 43.008L105.152 44.112H106.424L106.676 43.68C106.732 43.584 106.78 43.536 106.82 43.536C106.868 43.536 106.964 43.592 107.108 43.704C107.252 43.816 107.412 43.948 107.588 44.1C107.764 44.252 107.852 44.356 107.852 44.412C107.852 44.468 107.756 44.508 107.564 44.532C107.372 44.548 107.2 44.624 107.048 44.76C106.896 44.896 106.632 45.232 106.256 45.768L106.04 45.684C106.256 45.108 106.38 44.708 106.412 44.484H104.984ZM110.72 43.836C110.456 42.924 110.14 42.308 109.772 41.988L109.856 41.808C110.168 41.896 110.476 42.02 110.78 42.18C111.092 42.332 111.296 42.472 111.392 42.6C111.488 42.72 111.536 42.86 111.536 43.02C111.536 43.172 111.484 43.324 111.38 43.476C111.276 43.628 111.132 43.748 110.948 43.836H112.916L113.288 43.344C113.352 43.264 113.408 43.224 113.456 43.224C113.512 43.224 113.588 43.268 113.684 43.356C113.788 43.444 113.928 43.576 114.104 43.752C114.28 43.928 114.4 44.06 114.464 44.148C114.528 44.228 114.56 44.304 114.56 44.376C114.56 44.44 114.532 44.488 114.476 44.52C114.428 44.544 114.308 44.556 114.116 44.556C113.932 44.556 113.724 44.624 113.492 44.76C113.26 44.896 112.988 45.104 112.676 45.384C113.004 45.592 113.168 45.736 113.168 45.816C113.168 45.888 113.036 45.984 112.772 46.104V46.74C112.772 47.124 112.776 47.396 112.784 47.556L112.796 48.012C112.796 48.076 112.768 48.124 112.712 48.156C112.656 48.188 112.52 48.232 112.304 48.288C112.096 48.344 111.944 48.372 111.848 48.372C111.8 48.372 111.776 48.328 111.776 48.24V47.784H109.364V49.164H112.028L112.328 48.768C112.384 48.696 112.436 48.66 112.484 48.66C112.532 48.66 112.72 48.764 113.048 48.972C113.376 49.18 113.54 49.328 113.54 49.416C113.54 49.528 113.392 49.616 113.096 49.68V51.096L113.12 52.344C113.12 52.392 113.108 52.424 113.084 52.44C113.068 52.464 112.996 52.508 112.868 52.572C112.748 52.644 112.612 52.7 112.46 52.74C112.316 52.788 112.22 52.812 112.172 52.812C112.132 52.812 112.112 52.752 112.112 52.632V51.708H109.364V52.644C109.364 52.732 109.328 52.796 109.256 52.836C109.192 52.884 109.064 52.936 108.872 52.992C108.68 53.056 108.532 53.088 108.428 53.088C108.38 53.088 108.356 53.072 108.356 53.04C108.356 53.008 108.364 52.832 108.38 52.512C108.404 52.192 108.416 51.644 108.416 50.868V46.716C108.416 46.38 108.408 45.96 108.392 45.456C108.192 45.832 107.936 46.02 107.624 46.02C107.48 46.02 107.36 45.98 107.264 45.9C107.176 45.82 107.132 45.72 107.132 45.6C107.132 45.416 107.248 45.236 107.48 45.06C107.928 44.724 108.208 44.136 108.32 43.296H108.56C108.592 43.56 108.612 43.74 108.62 43.836H110.72ZM112.4 45.204C112.696 44.74 112.872 44.404 112.928 44.196H108.656C108.672 44.548 108.64 44.844 108.56 45.084C108.912 45.244 109.228 45.412 109.508 45.588H111.68L111.944 45.168C112 45.08 112.056 45.036 112.112 45.036C112.168 45.036 112.264 45.092 112.4 45.204ZM109.364 47.4H111.776V45.96H109.364V47.4ZM109.364 51.348H112.112V49.524H109.364V51.348ZM104.9 50.652V46.8C104.9 46.392 104.888 46.016 104.864 45.672C105.432 45.808 105.788 45.908 105.932 45.972C106.084 46.036 106.16 46.104 106.16 46.176C106.16 46.24 106.052 46.348 105.836 46.5V50.736L107.9 48.972L108.104 49.152C107.12 50.288 106.472 51.052 106.16 51.444C105.856 51.844 105.636 52.184 105.5 52.464C105.452 52.56 105.408 52.608 105.368 52.608C105.336 52.608 105.3 52.592 105.26 52.56C105.228 52.536 105.112 52.42 104.912 52.212C104.72 52.004 104.54 51.804 104.372 51.612C104.532 51.46 104.66 51.292 104.756 51.108C104.852 50.924 104.9 50.772 104.9 50.652Z" fill="white"/>
</svg>
