<svg width="160" height="68" viewBox="0 0 160 68" fill="none" xmlns="http://www.w3.org/2000/svg">
<path d="M31.29 38H24.906L9.744 14.438V38H3.36V4.4H10.668L24.906 26.324V4.4H31.29V38ZM74.106 21.2C74.106 23.608 73.63 25.876 72.678 28.004C71.754 30.132 70.48 31.98 68.856 33.548C67.232 35.116 65.342 36.362 63.186 37.286C61.03 38.182 58.734 38.63 56.298 38.63C53.862 38.63 51.552 38.182 49.368 37.286C47.212 36.362 45.322 35.116 43.698 33.548C42.074 31.98 40.786 30.146 39.834 28.046C38.91 25.918 38.448 23.636 38.448 21.2C38.448 18.764 38.91 16.482 39.834 14.354C40.786 12.226 42.074 10.378 43.698 8.81C45.322 7.242 47.212 6.01 49.368 5.114C51.552 4.218 53.862 3.77 56.298 3.77C58.734 3.77 61.03 4.218 63.186 5.114C65.342 6.01 67.232 7.256 68.856 8.852C70.48 10.42 71.754 12.268 72.678 14.396C73.63 16.496 74.106 18.764 74.106 21.2ZM67.554 21.2C67.554 19.66 67.26 18.218 66.672 16.874C66.084 15.502 65.272 14.312 64.236 13.304C63.228 12.268 62.038 11.456 60.666 10.868C59.294 10.252 57.838 9.944 56.298 9.944C54.73 9.944 53.26 10.252 51.888 10.868C50.516 11.456 49.312 12.268 48.276 13.304C47.268 14.312 46.47 15.502 45.882 16.874C45.294 18.218 45 19.66 45 21.2C45 22.712 45.294 24.154 45.882 25.526C46.47 26.898 47.268 28.102 48.276 29.138C49.312 30.146 50.516 30.958 51.888 31.574C53.26 32.162 54.73 32.456 56.298 32.456C57.838 32.456 59.294 32.162 60.666 31.574C62.038 30.958 63.228 30.146 64.236 29.138C65.272 28.102 66.084 26.898 66.672 25.526C67.26 24.154 67.554 22.712 67.554 21.2ZM114.781 38H108.397V15.572L97.8131 33.422L87.6491 15.404V38H81.2651V4.4H88.6151L97.9391 21.074L107.683 4.4H114.781V38ZM157.589 21.2C157.589 23.608 157.113 25.876 156.161 28.004C155.237 30.132 153.963 31.98 152.339 33.548C150.715 35.116 148.825 36.362 146.669 37.286C144.513 38.182 142.217 38.63 139.781 38.63C137.345 38.63 135.035 38.182 132.851 37.286C130.695 36.362 128.805 35.116 127.181 33.548C125.557 31.98 124.269 30.146 123.317 28.046C122.393 25.918 121.931 23.636 121.931 21.2C121.931 18.764 122.393 16.482 123.317 14.354C124.269 12.226 125.557 10.378 127.181 8.81C128.805 7.242 130.695 6.01 132.851 5.114C135.035 4.218 137.345 3.77 139.781 3.77C142.217 3.77 144.513 4.218 146.669 5.114C148.825 6.01 150.715 7.256 152.339 8.852C153.963 10.42 155.237 12.268 156.161 14.396C157.113 16.496 157.589 18.764 157.589 21.2ZM151.037 21.2C151.037 19.66 150.743 18.218 150.155 16.874C149.567 15.502 148.755 14.312 147.719 13.304C146.711 12.268 145.521 11.456 144.149 10.868C142.777 10.252 141.321 9.944 139.781 9.944C138.213 9.944 136.743 10.252 135.371 10.868C133.999 11.456 132.795 12.268 131.759 13.304C130.751 14.312 129.953 15.502 129.365 16.874C128.777 18.218 128.483 19.66 128.483 21.2C128.483 22.712 128.777 24.154 129.365 25.526C129.953 26.898 130.751 28.102 131.759 29.138C132.795 30.146 133.999 30.958 135.371 31.574C136.743 32.162 138.213 32.456 139.781 32.456C141.321 32.456 142.777 32.162 144.149 31.574C145.521 30.958 146.711 30.146 147.719 29.138C148.755 28.102 149.567 26.898 150.155 25.526C150.743 24.154 151.037 22.712 151.037 21.2Z" fill="white"/>
<path d="M7.896 54.792H8.568L9.224 53.88C9.29867 53.7627 9.384 53.704 9.48 53.704C9.58667 53.704 9.84267 53.9067 10.248 54.312C10.664 54.7067 10.872 54.968 10.872 55.096C10.872 55.224 10.792 55.288 10.632 55.288H7.896V57.272C8.65333 57.4853 9.24533 57.7147 9.672 57.96C10.0987 58.2053 10.312 58.5147 10.312 58.888C10.312 59.2613 10.2213 59.576 10.04 59.832C9.86933 60.0773 9.704 60.2 9.544 60.2C9.39467 60.2 9.288 60.168 9.224 60.104C9.17067 60.04 9.112 59.9067 9.048 59.704C8.74933 58.744 8.36533 58.0293 7.896 57.56V64.856C7.896 64.952 7.848 65.032 7.752 65.096C7.66667 65.16 7.47467 65.2507 7.176 65.368C6.87733 65.496 6.69067 65.56 6.616 65.56C6.552 65.56 6.52 65.5013 6.52 65.384L6.536 64.632C6.55733 64.12 6.568 63.656 6.568 63.24V58.616C5.864 60.3227 4.86133 61.8 3.56 63.048L3.336 62.872C4.78667 60.4827 5.784 57.9547 6.328 55.288H4.936C4.65867 55.288 4.42933 55.3147 4.248 55.368L3.976 54.712C4.2 54.7653 4.46667 54.792 4.776 54.792H6.568V52.584C6.568 51.88 6.552 51.272 6.52 50.76C7.288 50.984 7.82667 51.1547 8.136 51.272C8.44533 51.3893 8.6 51.4853 8.6 51.56C8.6 51.656 8.36533 51.8213 7.896 52.056V54.792ZM12.648 52.584H15.912L16.376 51.896C16.4507 51.7893 16.52 51.736 16.584 51.736C16.648 51.736 16.792 51.816 17.016 51.976C17.24 52.136 17.4747 52.3173 17.72 52.52C17.976 52.712 18.104 52.8347 18.104 52.888C18.104 52.984 17.9013 53.1547 17.496 53.4V63.272C17.496 63.8267 17.5013 64.1893 17.512 64.36L17.528 64.808C17.528 64.8507 17.5227 64.8827 17.512 64.904C17.5013 64.936 17.3947 65.016 17.192 65.144C17 65.272 16.7813 65.3787 16.536 65.464C16.2907 65.56 16.1413 65.608 16.088 65.608C16.0453 65.608 16.024 65.544 16.024 65.416V63.864H12.472V64.824C12.472 64.92 12.4613 64.984 12.44 65.016C12.4187 65.048 12.328 65.1067 12.168 65.192C12.0187 65.288 11.8 65.384 11.512 65.48C11.2347 65.576 11.0747 65.624 11.032 65.624C11 65.624 10.9893 65.5707 11 65.464C11.0533 64.9413 11.08 64.408 11.08 63.864V53.16C11.08 52.712 11.064 52.2587 11.032 51.8C11.6933 52.056 12.232 52.3173 12.648 52.584ZM16.024 56.184V53.112H12.472V56.184H16.024ZM16.024 59.752V56.696H12.472V59.752H16.024ZM16.024 63.352V60.264H12.472V63.352H16.024ZM41.448 54.696H42.12L42.664 53.784C42.76 53.6347 42.8507 53.56 42.936 53.56C43.032 53.56 43.2827 53.7787 43.688 54.216C44.0933 54.6427 44.296 54.92 44.296 55.048C44.296 55.1653 44.1787 55.224 43.944 55.224H41.448V56.888C42.2693 57.0907 42.8827 57.3147 43.288 57.56C43.6933 57.7947 43.896 58.0667 43.896 58.376C43.896 58.6747 43.816 58.9467 43.656 59.192C43.5067 59.4267 43.3253 59.544 43.112 59.544C43.0267 59.544 42.9573 59.512 42.904 59.448C42.8613 59.384 42.8027 59.272 42.728 59.112C42.3547 58.3013 41.928 57.6773 41.448 57.24V64.68C41.448 64.8507 41.4053 64.968 41.32 65.032C41.2347 65.1067 41.0427 65.2027 40.744 65.32C40.456 65.4373 40.264 65.496 40.168 65.496C40.0827 65.496 40.04 65.432 40.04 65.304L40.072 64.424C40.0827 64.0613 40.088 63.656 40.088 63.208V58.456C39.3733 59.6827 38.3707 60.936 37.08 62.216L36.824 61.96C37.6453 60.8507 38.2693 59.7893 38.696 58.776C39.1333 57.7627 39.512 56.5787 39.832 55.224H38.264C37.9867 55.224 37.7573 55.2507 37.576 55.304L37.304 54.616C37.528 54.6693 37.7947 54.696 38.104 54.696H40.088V52.76C40.088 52.056 40.072 51.448 40.04 50.936C41.352 51.2347 42.008 51.4693 42.008 51.64C42.008 51.736 41.8213 51.8853 41.448 52.088V54.696ZM46.072 52.824C46.0827 53.976 46.0613 55.2987 46.008 56.792C45.9547 58.2853 45.8907 59.2987 45.816 59.832C45.7413 60.3653 45.6133 60.872 45.432 61.352C45.2507 61.8213 45.0053 62.2693 44.696 62.696C44.3973 63.112 44.0187 63.528 43.56 63.944C43.112 64.3707 42.5573 64.8347 41.896 65.336L41.672 65.032C42.5787 64.1467 43.2453 63.32 43.672 62.552C44.0987 61.784 44.376 60.92 44.504 59.96C44.6427 59 44.712 57.6027 44.712 55.768C44.712 53.9227 44.6693 52.5147 44.584 51.544C45.1707 51.704 45.768 51.9493 46.376 52.28H47.528L47.992 51.576C48.0667 51.4587 48.1467 51.4 48.232 51.4C48.3067 51.4 48.4933 51.5013 48.792 51.704C49.0907 51.9067 49.3307 52.0827 49.512 52.232C49.6933 52.3813 49.784 52.5093 49.784 52.616C49.784 52.7227 49.5387 52.9253 49.048 53.224V62.968C49.048 63.128 49.1013 63.224 49.208 63.256C49.3147 63.288 49.6187 63.304 50.12 63.304C50.3653 63.304 50.536 63.2453 50.632 63.128C50.7387 63.0213 50.8293 62.7493 50.904 62.312C50.9893 61.864 51.1067 61.016 51.256 59.768H51.688C51.6347 60.504 51.608 61.096 51.608 61.544C51.608 61.9813 51.64 62.3333 51.704 62.6C51.7787 62.856 51.9547 63.064 52.232 63.224C52.3387 63.2987 52.392 63.3733 52.392 63.448C52.392 63.5333 52.296 63.7253 52.104 64.024C51.912 64.3333 51.6827 64.5253 51.416 64.6C51.16 64.6853 50.632 64.728 49.832 64.728C49.032 64.728 48.4613 64.664 48.12 64.536C47.7893 64.4187 47.624 64.1093 47.624 63.608V52.824H46.072ZM80.504 57.88V56.184C80.504 55.7147 80.488 55.272 80.456 54.856C80.8613 54.9413 81.224 55.0267 81.544 55.112C81.8747 55.1973 82.072 55.256 82.136 55.288C82.2 55.32 82.232 55.3733 82.232 55.448C82.232 55.512 82.0987 55.6133 81.832 55.752V57.88H82.856L83.496 57.048C83.5707 56.9413 83.6507 56.888 83.736 56.888C83.8213 56.888 84.0133 57.0053 84.312 57.24L85.048 57.832C85.2507 57.992 85.352 58.1307 85.352 58.248C85.352 58.3547 85.24 58.408 85.016 58.408H81.832V64.088C81.832 64.4507 81.752 64.7013 81.592 64.84C81.4427 64.9893 81.208 65.1173 80.888 65.224C80.568 65.3413 80.3493 65.4 80.232 65.4C80.1147 65.4 80.0453 65.3253 80.024 65.176C79.96 64.8453 79.8213 64.5947 79.608 64.424C79.3947 64.264 78.9413 64.088 78.248 63.896L78.28 63.592C79.0907 63.688 79.6293 63.736 79.896 63.736C80.1733 63.736 80.344 63.7093 80.408 63.656C80.472 63.6027 80.504 63.512 80.504 63.384V58.408H78.392C78.2213 58.664 78.088 58.792 77.992 58.792C77.9067 58.792 77.6827 58.6693 77.32 58.424C76.9573 58.1787 76.7387 58.0133 76.664 57.928C76.8773 57.8213 77.0427 57.72 77.16 57.624C77.2773 57.5173 77.3787 57.384 77.464 57.224C77.5493 57.064 77.7307 56.6427 78.008 55.96C78.296 55.2773 78.552 54.6053 78.776 53.944H77.496C77.208 53.944 76.984 53.9813 76.824 54.056L76.536 53.4C76.76 53.4533 77.0267 53.48 77.336 53.48H78.936C79.2453 52.5093 79.4907 51.608 79.672 50.776C79.992 50.872 80.36 51 80.776 51.16C81.192 51.32 81.432 51.4213 81.496 51.464C81.56 51.496 81.592 51.5493 81.592 51.624C81.592 51.688 81.4907 51.7467 81.288 51.8C81.0853 51.8533 80.936 51.9973 80.84 52.232L80.312 53.48H82.984L83.656 52.456C83.7307 52.3493 83.7947 52.296 83.848 52.296C83.9333 52.296 84.2267 52.52 84.728 52.968C85.24 53.4053 85.496 53.6773 85.496 53.784C85.496 53.8907 85.3947 53.944 85.192 53.944H80.12L78.488 57.88H80.504ZM73.4 51.976H75.064L75.432 51.368C75.496 51.2827 75.56 51.24 75.624 51.24C75.6987 51.24 75.9707 51.4053 76.44 51.736C76.92 52.056 77.16 52.248 77.16 52.312C77.16 52.376 77.08 52.4347 76.92 52.488C76.7707 52.5413 76.6427 52.6213 76.536 52.728C76.44 52.8347 76.1947 53.208 75.8 53.848C75.4053 54.4773 74.9467 55.2507 74.424 56.168C75.1493 56.5947 75.688 57.032 76.04 57.48C76.392 57.928 76.568 58.504 76.568 59.208C76.568 60.0827 76.3227 60.6907 75.832 61.032C75.352 61.3733 75.0373 61.544 74.888 61.544C74.7493 61.544 74.6747 61.4587 74.664 61.288C74.6533 60.9893 74.5413 60.7493 74.328 60.568C74.1253 60.3867 73.8053 60.2373 73.368 60.12V59.848C73.7413 59.9013 74.072 59.928 74.36 59.928C74.6587 59.928 74.8827 59.864 75.032 59.736C75.1813 59.608 75.256 59.3467 75.256 58.952C75.256 58.5573 75.1387 58.0987 74.904 57.576C74.6693 57.0427 74.3493 56.6053 73.944 56.264C74.5733 54.472 74.9733 53.1867 75.144 52.408H73.176V64.76C73.176 64.888 73.1387 64.9733 73.064 65.016C72.9893 65.0693 72.8027 65.1493 72.504 65.256C72.2053 65.3627 72.0187 65.416 71.944 65.416C71.88 65.416 71.848 65.384 71.848 65.32L71.88 64.568C71.9013 64.248 71.912 63.7573 71.912 63.096V52.904C71.912 52.136 71.8907 51.576 71.848 51.224C72.5093 51.5013 73.0267 51.752 73.4 51.976ZM78.344 59.208C78.7493 59.432 79.0907 59.6347 79.368 59.816C79.656 59.9973 79.816 60.1093 79.848 60.152C79.88 60.1947 79.896 60.2427 79.896 60.296C79.896 60.4133 79.8053 60.472 79.624 60.472C79.56 60.472 79.48 60.4987 79.384 60.552C79.288 60.5947 79.224 60.6427 79.192 60.696C78.2 61.9547 77.4533 62.7973 76.952 63.224C76.4613 63.6507 75.8373 64.104 75.08 64.584L74.872 64.36C75.6293 63.6133 76.264 62.8613 76.776 62.104C77.2987 61.336 77.8213 60.3707 78.344 59.208ZM82.408 59.224C84.36 60.5893 85.336 61.672 85.336 62.472C85.336 62.8667 85.2453 63.176 85.064 63.4C84.8933 63.6347 84.6853 63.752 84.44 63.752C84.3227 63.752 84.2373 63.7093 84.184 63.624C84.1307 63.5493 84.0827 63.432 84.04 63.272C83.7307 62.1413 83.432 61.3147 83.144 60.792C82.8667 60.2693 82.5627 59.816 82.232 59.432L82.408 59.224ZM116.808 51.016C117.203 51.0907 117.587 51.1813 117.96 51.288C118.344 51.3947 118.584 51.4693 118.68 51.512C118.776 51.5547 118.824 51.6133 118.824 51.688C118.824 51.7627 118.632 51.9013 118.248 52.104V63.4C118.248 63.9867 118.147 64.3973 117.944 64.632C117.752 64.8667 117.448 65.0693 117.032 65.24C116.627 65.4107 116.365 65.496 116.248 65.496C116.141 65.496 116.077 65.4107 116.056 65.24C116.013 64.9413 115.928 64.7067 115.8 64.536C115.683 64.3653 115.469 64.2053 115.16 64.056C114.851 63.9173 114.381 63.7573 113.752 63.576L113.832 63.272C115.027 63.5067 115.768 63.624 116.056 63.624C116.355 63.624 116.557 63.5813 116.664 63.496C116.781 63.4213 116.84 63.2187 116.84 62.888V52.44C116.84 51.9067 116.829 51.432 116.808 51.016ZM108.44 56.056C108.259 56.4187 108.072 56.76 107.88 57.08C108.349 57.4853 108.707 57.896 108.952 58.312C109.208 58.7173 109.336 59.0693 109.336 59.368C109.336 59.656 109.24 59.9067 109.048 60.12C108.856 60.3333 108.627 60.44 108.36 60.44C108.093 60.44 107.96 60.2907 107.96 59.992C107.96 59.896 107.976 59.752 108.008 59.56C108.04 59.368 108.056 59.176 108.056 58.984C108.056 58.472 107.933 57.9333 107.688 57.368C107.016 58.456 106.024 59.6347 104.712 60.904L104.472 60.68C105.453 59.4 106.232 58.1573 106.808 56.952C107.384 55.7467 107.864 54.3333 108.248 52.712H105.704C105.427 52.712 105.197 52.7387 105.016 52.792L104.744 52.136C104.968 52.1893 105.235 52.216 105.544 52.216H111.144L111.864 51.384C111.971 51.2667 112.061 51.208 112.136 51.208C112.211 51.208 112.355 51.2987 112.568 51.48L113.288 52.104C113.555 52.328 113.688 52.488 113.688 52.584C113.688 52.6693 113.571 52.712 113.336 52.712H109.816C109.464 53.768 109.091 54.712 108.696 55.544H110.52L110.92 55C110.995 54.904 111.069 54.856 111.144 54.856C111.229 54.856 111.437 54.9467 111.768 55.128C112.109 55.2987 112.36 55.432 112.52 55.528C112.691 55.624 112.776 55.7147 112.776 55.8C112.776 55.8747 112.691 55.9547 112.52 56.04C112.36 56.1147 112.248 56.2 112.184 56.296C112.12 56.392 112.056 56.5787 111.992 56.856C111.629 58.392 111.187 59.64 110.664 60.6C110.141 61.56 109.405 62.392 108.456 63.096C107.517 63.8 106.227 64.456 104.584 65.064L104.504 64.824C106.413 63.7573 107.869 62.5147 108.872 61.096C109.875 59.6667 110.483 57.9867 110.696 56.056H108.44ZM113.752 53.256C114.893 53.5227 115.464 53.7467 115.464 53.928C115.464 54.024 115.336 54.12 115.08 54.216V59.432L115.112 60.84C115.112 60.9573 115.08 61.0427 115.016 61.096C114.963 61.1387 114.792 61.2027 114.504 61.288C114.227 61.3733 114.013 61.416 113.864 61.416C113.789 61.416 113.752 61.336 113.752 61.176L113.784 59.336V54.536C113.784 54.056 113.773 53.6293 113.752 53.256ZM140.312 54.312C139.725 55.5387 139 56.648 138.136 57.64L137.864 57.416C138.952 55.5493 139.72 53.3253 140.168 50.744C140.989 51.0427 141.485 51.24 141.656 51.336C141.837 51.432 141.928 51.5173 141.928 51.592C141.928 51.6667 141.832 51.736 141.64 51.8C141.459 51.864 141.304 52.0453 141.176 52.344L140.536 53.816H142.232L142.568 53.24C142.643 53.112 142.707 53.048 142.76 53.048C142.824 53.048 142.952 53.1227 143.144 53.272C143.336 53.4213 143.549 53.5973 143.784 53.8C144.019 54.0027 144.136 54.1413 144.136 54.216C144.136 54.2907 144.008 54.344 143.752 54.376C143.496 54.3973 143.267 54.4987 143.064 54.68C142.861 54.8613 142.509 55.3093 142.008 56.024L141.72 55.912C142.008 55.144 142.173 54.6107 142.216 54.312H140.312ZM147.96 53.448C147.608 52.232 147.187 51.4107 146.696 50.984L146.808 50.744C147.224 50.8613 147.635 51.0267 148.04 51.24C148.456 51.4427 148.728 51.6293 148.856 51.8C148.984 51.96 149.048 52.1467 149.048 52.36C149.048 52.5627 148.979 52.7653 148.84 52.968C148.701 53.1707 148.509 53.3307 148.264 53.448H150.888L151.384 52.792C151.469 52.6853 151.544 52.632 151.608 52.632C151.683 52.632 151.784 52.6907 151.912 52.808C152.051 52.9253 152.237 53.1013 152.472 53.336C152.707 53.5707 152.867 53.7467 152.952 53.864C153.037 53.9707 153.08 54.072 153.08 54.168C153.08 54.2533 153.043 54.3173 152.968 54.36C152.904 54.392 152.744 54.408 152.488 54.408C152.243 54.408 151.965 54.4987 151.656 54.68C151.347 54.8613 150.984 55.1387 150.568 55.512C151.005 55.7893 151.224 55.9813 151.224 56.088C151.224 56.184 151.048 56.312 150.696 56.472V57.32C150.696 57.832 150.701 58.1947 150.712 58.408L150.728 59.016C150.728 59.1013 150.691 59.1653 150.616 59.208C150.541 59.2507 150.36 59.3093 150.072 59.384C149.795 59.4587 149.592 59.496 149.464 59.496C149.4 59.496 149.368 59.4373 149.368 59.32V58.712H146.152V60.552H149.704L150.104 60.024C150.179 59.928 150.248 59.88 150.312 59.88C150.376 59.88 150.627 60.0187 151.064 60.296C151.501 60.5733 151.72 60.7707 151.72 60.888C151.72 61.0373 151.523 61.1547 151.128 61.24V63.128L151.16 64.792C151.16 64.856 151.144 64.8987 151.112 64.92C151.091 64.952 150.995 65.0107 150.824 65.096C150.664 65.192 150.483 65.2667 150.28 65.32C150.088 65.384 149.96 65.416 149.896 65.416C149.843 65.416 149.816 65.336 149.816 65.176V63.944H146.152V65.192C146.152 65.3093 146.104 65.3947 146.008 65.448C145.923 65.512 145.752 65.5813 145.496 65.656C145.24 65.7413 145.043 65.784 144.904 65.784C144.84 65.784 144.808 65.7627 144.808 65.72C144.808 65.6773 144.819 65.4427 144.84 65.016C144.872 64.5893 144.888 63.8587 144.888 62.824V57.288C144.888 56.84 144.877 56.28 144.856 55.608C144.589 56.1093 144.248 56.36 143.832 56.36C143.64 56.36 143.48 56.3067 143.352 56.2C143.235 56.0933 143.176 55.96 143.176 55.8C143.176 55.5547 143.331 55.3147 143.64 55.08C144.237 54.632 144.611 53.848 144.76 52.728H145.08C145.123 53.08 145.149 53.32 145.16 53.448H147.96ZM150.2 55.272C150.595 54.6533 150.829 54.2053 150.904 53.928H145.208C145.229 54.3973 145.187 54.792 145.08 55.112C145.549 55.3253 145.971 55.5493 146.344 55.784H149.24L149.592 55.224C149.667 55.1067 149.741 55.048 149.816 55.048C149.891 55.048 150.019 55.1227 150.2 55.272ZM146.152 58.2H149.368V56.28H146.152V58.2ZM146.152 63.464H149.816V61.032H146.152V63.464ZM140.2 62.536V57.4C140.2 56.856 140.184 56.3547 140.152 55.896C140.909 56.0773 141.384 56.2107 141.576 56.296C141.779 56.3813 141.88 56.472 141.88 56.568C141.88 56.6533 141.736 56.7973 141.448 57V62.648L144.2 60.296L144.472 60.536C143.16 62.0507 142.296 63.0693 141.88 63.592C141.475 64.1253 141.181 64.5787 141 64.952C140.936 65.08 140.877 65.144 140.824 65.144C140.781 65.144 140.733 65.1227 140.68 65.08C140.637 65.048 140.483 64.8933 140.216 64.616C139.96 64.3387 139.72 64.072 139.496 63.816C139.709 63.6133 139.88 63.3893 140.008 63.144C140.136 62.8987 140.2 62.696 140.2 62.536Z" fill="white"/>
</svg>
